<mxfile host="app.diagrams.net" modified="2021-07-10T17:37:37.738Z" agent="5.0 (Macintosh; Intel Mac OS X 10_15_7) AppleWebKit/537.36 (KHTML, like Gecko) Chrome/91.0.4472.114 Safari/537.36" etag="ac6w-39imz4GoBCqzu8y" version="14.8.5" type="github">
  <diagram id="460ZACOPUbeRvNj8pBdt" name="Page-1">
    <mxGraphModel dx="1323" dy="598" grid="1" gridSize="10" guides="1" tooltips="1" connect="1" arrows="1" fold="1" page="1" pageScale="1" pageWidth="850" pageHeight="1100" math="0" shadow="0">
      <root>
        <mxCell id="0" />
        <mxCell id="1" parent="0" />
        <mxCell id="VTEPzCFBbiwPGGg2G6lf-13" style="edgeStyle=orthogonalEdgeStyle;rounded=0;orthogonalLoop=1;jettySize=auto;html=1;entryX=0;entryY=0.5;entryDx=0;entryDy=0;entryPerimeter=0;fontColor=#000000;" edge="1" parent="1" source="VTEPzCFBbiwPGGg2G6lf-1" target="VTEPzCFBbiwPGGg2G6lf-8">
          <mxGeometry relative="1" as="geometry" />
        </mxCell>
        <mxCell id="VTEPzCFBbiwPGGg2G6lf-1" value="USER" style="whiteSpace=wrap;html=1;aspect=fixed;" vertex="1" parent="1">
          <mxGeometry x="30" y="190" width="80" height="80" as="geometry" />
        </mxCell>
        <mxCell id="VTEPzCFBbiwPGGg2G6lf-2" value="DATABASE" style="shape=cylinder3;whiteSpace=wrap;html=1;boundedLbl=1;backgroundOutline=1;size=15;" vertex="1" parent="1">
          <mxGeometry x="660" y="125" width="100" height="90" as="geometry" />
        </mxCell>
        <mxCell id="VTEPzCFBbiwPGGg2G6lf-15" style="edgeStyle=orthogonalEdgeStyle;rounded=0;orthogonalLoop=1;jettySize=auto;html=1;entryX=0.5;entryY=0;entryDx=0;entryDy=0;fontColor=#000000;exitX=0.875;exitY=0.5;exitDx=0;exitDy=0;exitPerimeter=0;" edge="1" parent="1" source="VTEPzCFBbiwPGGg2G6lf-3" target="VTEPzCFBbiwPGGg2G6lf-14">
          <mxGeometry relative="1" as="geometry" />
        </mxCell>
        <mxCell id="VTEPzCFBbiwPGGg2G6lf-3" value="AWS SMS&lt;br&gt;&amp;nbsp;SERVICE" style="ellipse;shape=cloud;whiteSpace=wrap;html=1;" vertex="1" parent="1">
          <mxGeometry x="190" y="40" width="120" height="80" as="geometry" />
        </mxCell>
        <mxCell id="VTEPzCFBbiwPGGg2G6lf-16" style="edgeStyle=orthogonalEdgeStyle;rounded=0;orthogonalLoop=1;jettySize=auto;html=1;entryX=0;entryY=0.5;entryDx=0;entryDy=0;fontColor=#000000;" edge="1" parent="1" source="VTEPzCFBbiwPGGg2G6lf-8" target="VTEPzCFBbiwPGGg2G6lf-14">
          <mxGeometry relative="1" as="geometry" />
        </mxCell>
        <mxCell id="VTEPzCFBbiwPGGg2G6lf-8" value="USER&amp;nbsp;&lt;br&gt;DATA" style="shape=or;whiteSpace=wrap;html=1;labelBackgroundColor=none;fontColor=#000000;verticalAlign=middle;" vertex="1" parent="1">
          <mxGeometry x="220" y="190" width="60" height="80" as="geometry" />
        </mxCell>
        <mxCell id="VTEPzCFBbiwPGGg2G6lf-10" value="" style="curved=1;endArrow=classic;html=1;fontColor=#000000;entryX=0.16;entryY=0.55;entryDx=0;entryDy=0;entryPerimeter=0;exitX=0.5;exitY=0;exitDx=0;exitDy=0;" edge="1" parent="1" source="VTEPzCFBbiwPGGg2G6lf-1" target="VTEPzCFBbiwPGGg2G6lf-3">
          <mxGeometry width="50" height="50" relative="1" as="geometry">
            <mxPoint x="70" y="160" as="sourcePoint" />
            <mxPoint x="120" y="110" as="targetPoint" />
            <Array as="points">
              <mxPoint x="120" y="160" />
              <mxPoint x="70" y="110" />
            </Array>
          </mxGeometry>
        </mxCell>
        <mxCell id="VTEPzCFBbiwPGGg2G6lf-11" value="SMS CONFIRMATION" style="text;html=1;align=center;verticalAlign=middle;resizable=0;points=[];autosize=1;strokeColor=none;fontColor=#000000;" vertex="1" parent="1">
          <mxGeometry x="40" y="70" width="140" height="20" as="geometry" />
        </mxCell>
        <mxCell id="VTEPzCFBbiwPGGg2G6lf-17" style="edgeStyle=orthogonalEdgeStyle;rounded=0;orthogonalLoop=1;jettySize=auto;html=1;fontColor=#000000;" edge="1" parent="1" source="VTEPzCFBbiwPGGg2G6lf-14" target="VTEPzCFBbiwPGGg2G6lf-2">
          <mxGeometry relative="1" as="geometry" />
        </mxCell>
        <mxCell id="VTEPzCFBbiwPGGg2G6lf-18" style="edgeStyle=orthogonalEdgeStyle;rounded=0;orthogonalLoop=1;jettySize=auto;html=1;exitX=0.5;exitY=1;exitDx=0;exitDy=0;entryX=0.5;entryY=1;entryDx=0;entryDy=0;fontColor=#000000;" edge="1" parent="1" source="VTEPzCFBbiwPGGg2G6lf-14" target="VTEPzCFBbiwPGGg2G6lf-1">
          <mxGeometry relative="1" as="geometry" />
        </mxCell>
        <mxCell id="VTEPzCFBbiwPGGg2G6lf-14" value="BACKEND" style="rhombus;whiteSpace=wrap;html=1;labelBackgroundColor=none;fontColor=#000000;verticalAlign=middle;" vertex="1" parent="1">
          <mxGeometry x="425" y="120" width="115" height="100" as="geometry" />
        </mxCell>
        <mxCell id="VTEPzCFBbiwPGGg2G6lf-19" value="THE CODE (OTP)" style="text;html=1;align=center;verticalAlign=middle;resizable=0;points=[];autosize=1;strokeColor=none;fontColor=#000000;" vertex="1" parent="1">
          <mxGeometry x="335" y="50" width="110" height="20" as="geometry" />
        </mxCell>
        <mxCell id="VTEPzCFBbiwPGGg2G6lf-20" value="USER DATA" style="text;html=1;align=center;verticalAlign=middle;resizable=0;points=[];autosize=1;strokeColor=none;fontColor=#000000;" vertex="1" parent="1">
          <mxGeometry x="320" y="150" width="80" height="20" as="geometry" />
        </mxCell>
        <mxCell id="VTEPzCFBbiwPGGg2G6lf-21" value="On SUCESS ?" style="text;html=1;align=center;verticalAlign=middle;resizable=0;points=[];autosize=1;strokeColor=none;fontColor=#000000;" vertex="1" parent="1">
          <mxGeometry x="550" y="140" width="90" height="20" as="geometry" />
        </mxCell>
        <mxCell id="VTEPzCFBbiwPGGg2G6lf-22" value="ON ERROR&amp;nbsp;" style="text;html=1;align=center;verticalAlign=middle;resizable=0;points=[];autosize=1;strokeColor=none;fontColor=#000000;" vertex="1" parent="1">
          <mxGeometry x="230" y="300" width="80" height="20" as="geometry" />
        </mxCell>
        <mxCell id="VTEPzCFBbiwPGGg2G6lf-23" value="AUTH CODE" style="text;html=1;align=center;verticalAlign=middle;resizable=0;points=[];autosize=1;strokeColor=none;fontColor=#000000;" vertex="1" parent="1">
          <mxGeometry x="355" y="10" width="90" height="20" as="geometry" />
        </mxCell>
      </root>
    </mxGraphModel>
  </diagram>
</mxfile>
